<svg width="18" height="18" viewBox="0 0 18 18" fill="none" xmlns="http://www.w3.org/2000/svg">
<g clip-path="url(#clip0_31_704)">
<circle cx="9" cy="9" r="9" fill="#0496FF"/>
<path d="M3.97266 8.76953C3.97266 8.52344 4.05859 8.31445 4.23047 8.14258C4.40625 7.9668 4.61719 7.87891 4.86328 7.87891H8.11523V4.63281C8.11523 4.38672 8.20117 4.17773 8.37305 4.00586C8.54492 3.83008 8.75391 3.74219 9 3.74219C9.24609 3.74219 9.45508 3.83008 9.62695 4.00586C9.80273 4.17773 9.89062 4.38672 9.89062 4.63281V7.87891H13.1426C13.3848 7.87891 13.5918 7.9668 13.7637 8.14258C13.9395 8.31445 14.0273 8.52344 14.0273 8.76953C14.0273 9.01562 13.9395 9.22656 13.7637 9.40234C13.5918 9.57422 13.3848 9.66016 13.1426 9.66016H9.89062V12.9121C9.89062 13.1543 9.80273 13.3613 9.62695 13.5332C9.45508 13.709 9.24609 13.7969 9 13.7969C8.75391 13.7969 8.54492 13.709 8.37305 13.5332C8.20117 13.3613 8.11523 13.1543 8.11523 12.9121V9.66016H4.86328C4.61719 9.66016 4.40625 9.57422 4.23047 9.40234C4.05859 9.22656 3.97266 9.01562 3.97266 8.76953Z" fill="white"/>
</g>
<defs>
<clipPath id="clip0_31_704">
<rect width="18" height="18" fill="white"/>
</clipPath>
</defs>
</svg>
