<svg width="18" height="18" viewBox="0 0 18 18" fill="none" xmlns="http://www.w3.org/2000/svg">
<path d="M6.94797 6.52307L6.94797 6.52307L6.94956 6.52467L8.64636 8.22227L9 8.57607L9.35364 8.22227L11.0385 6.53662L11.0891 6.49238C11.148 6.44946 11.2206 6.42938 11.2934 6.43611C11.3697 6.44316 11.4403 6.47907 11.4909 6.5365L11.866 6.20594L11.4909 6.5365C11.5415 6.59392 11.5682 6.66851 11.5656 6.74501C11.563 6.8215 11.5313 6.89411 11.4769 6.94797L11.4753 6.94956L9.77773 8.64636L9.42393 9L9.77773 9.35364L11.4634 11.0385L11.5076 11.0891C11.5505 11.148 11.5706 11.2206 11.5639 11.2934C11.5568 11.3697 11.5209 11.4403 11.4635 11.4909C11.4061 11.5415 11.3315 11.5682 11.255 11.5656C11.1785 11.563 11.1059 11.5313 11.052 11.4769L11.0504 11.4753L9.35364 9.77773L9 9.42393L8.64636 9.77773L6.96058 11.4643L6.91086 11.5082C6.85211 11.5507 6.77982 11.5706 6.70736 11.5639C6.63115 11.5568 6.56051 11.5209 6.50991 11.4635C6.45931 11.4061 6.43257 11.3315 6.43517 11.255C6.43776 11.1785 6.4695 11.1059 6.52388 11.052L6.52572 11.0502L8.22172 9.35259L8.57494 8.99903L8.22155 8.64565L6.53641 6.9605L6.49171 6.90995C6.44925 6.85123 6.42941 6.77898 6.43611 6.70656C6.44316 6.63035 6.47907 6.55971 6.5365 6.50911C6.59392 6.45851 6.66851 6.43177 6.74501 6.43437C6.8215 6.43696 6.89411 6.46869 6.94797 6.52307ZM17.5 9C17.5 4.30546 13.6945 0.5 9 0.5C4.30546 0.5 0.5 4.30546 0.5 9C0.5 13.6945 4.30546 17.5 9 17.5C13.6945 17.5 17.5 13.6945 17.5 9Z" fill="#F44336" stroke="white"/>
</svg>
